<svg id="Ebene_1" data-name="Ebene 1" xmlns="http://www.w3.org/2000/svg" viewBox="0 0 445.78 80.73"><defs><style>.cls-1{fill:#f7f6f2;}</style></defs><title>Logo</title><path class="cls-1" d="M0,7.7,31.8,39.49l.63.63V80.41h5V40.11l1-1,10-10,12-12,.08-.09A34.93,34.93,0,0,1,86.83,5,34.83,34.83,0,1,1,61.29,63.49l22-22L79.71,38,54.56,63.15A41.11,41.11,0,0,0,57.75,67,39.84,39.84,0,1,0,57,13.46L34.92,35.55,3.54,4.17Z"/><path class="cls-1" d="M160.4,39.87V10.22h2.73V39.87Z"/><path class="cls-1" d="M181,39.87h-2.73V28.78l-10-18.56h3.12l2.33,4.35L179.58,26q.36-.84,8.36-15.79h3.13L181,28.78Z"/><path class="cls-1" d="M198.64,37.36H212v2.51H195.91V10.22H211.7v2.5H198.64V23.81h11.52v2.51H198.64Z"/><path class="cls-1" d="M217.47,39.87V10.22h3.74l15.92,26.44q-.07-4.57-.08-13.86V10.22h2.72V39.87H236L220.11,13.43q.07,4.76.08,13.9V39.87Z"/><path class="cls-1" d="M269.3,23.55V37.67a14.49,14.49,0,0,1-8.8,2.55q-6.78,0-10.89-4.07T245.49,25.2a15.77,15.77,0,0,1,4-11.2,13.31,13.31,0,0,1,10.19-4.31,16.3,16.3,0,0,1,8.62,2.07v3a14.36,14.36,0,0,0-8.43-2.37,11,11,0,0,0-8.31,3.45,12.81,12.81,0,0,0-3.28,9.22q0,5.76,3.26,9.08t9,3.33a12.94,12.94,0,0,0,6-1.37V26h-7V23.55Z"/><path class="cls-1" d="M295.79,39.87,293,31.64H279.86L277,39.87h-2.95l10.47-29.65h4l10.25,29.65Zm-15.1-10.65h11.49L286.5,12.5Q284.83,17.62,280.69,29.22Z"/><path class="cls-1" d="M312,27.82h-5.33v12h-2.72V10.22h6.68c3.47,0,6.05.78,7.77,2.35A8.56,8.56,0,0,1,321,19.24a8.86,8.86,0,0,1-1.67,5.14,7.93,7.93,0,0,1-4.49,2.95l7.88,12.54h-3.26Zm-5.33-2.42h4.8a6.72,6.72,0,0,0,5-1.81,6.19,6.19,0,0,0,1.76-4.49q0-6.47-7.31-6.46h-4.27Z"/><path class="cls-1" d="M348.5,39.87h-2.73V28.78l-10-18.56h3.12l2.33,4.35L347.13,26q.36-.84,8.36-15.79h3.13L348.5,28.78Z"/><path class="cls-1" d="M375.25,40.22A11.92,11.92,0,0,1,365.72,36q-3.59-4.17-3.58-11.15t3.49-11.13A11.87,11.87,0,0,1,375.2,9.6a11.72,11.72,0,0,1,9.51,4.11q3.44,4.13,3.43,11.18t-3.48,11.2A11.62,11.62,0,0,1,375.25,40.22Zm-.07-28a9.09,9.09,0,0,0-7.52,3.37Q364.95,19,365,24.87t2.8,9.3a9.21,9.21,0,0,0,7.54,3.41,8.86,8.86,0,0,0,7.39-3.36q2.64-3.37,2.64-9.33c0-4-.88-7.08-2.66-9.31A9,9,0,0,0,375.18,12.24Z"/><path class="cls-1" d="M416.34,23.55V37.67a14.47,14.47,0,0,1-8.8,2.55q-6.77,0-10.89-4.07T392.54,25.2a15.72,15.72,0,0,1,4-11.2,13.29,13.29,0,0,1,10.18-4.31,16.34,16.34,0,0,1,8.63,2.07v3A14.36,14.36,0,0,0,407,12.42a11,11,0,0,0-8.32,3.45,12.85,12.85,0,0,0-3.27,9.22q0,5.76,3.25,9.08t9,3.33a12.94,12.94,0,0,0,6-1.37V26h-7V23.55Z"/><path class="cls-1" d="M442.83,39.87,440,31.64H426.9L424,39.87H421.1l10.47-29.65h4l10.25,29.65ZM427.74,29.22h11.48L433.55,12.5Q431.87,17.62,427.74,29.22Z"/><path class="cls-1" d="M177.94,67.05V78.61a11.88,11.88,0,0,1-7.2,2.09,11.53,11.53,0,0,1-12.28-12.3,12.91,12.91,0,0,1,3.29-9.16,10.94,10.94,0,0,1,8.34-3.53,13.31,13.31,0,0,1,7,1.7v2.48A11.65,11.65,0,0,0,170.25,58a9,9,0,0,0-6.8,2.82,10.51,10.51,0,0,0-2.69,7.54,10.15,10.15,0,0,0,2.67,7.44,9.8,9.8,0,0,0,7.34,2.72,10.63,10.63,0,0,0,4.93-1.12V69H170v-2Z"/><path class="cls-1" d="M188.74,61.87q6.69,0,6.69,7V80.41h-2.19V78.29q-1.52,2.29-5.26,2.3a5.82,5.82,0,0,1-4.12-1.49,5.19,5.19,0,0,1-1.6-4,4.58,4.58,0,0,1,2-3.94,9,9,0,0,1,5.38-1.46h3.57v-.83a5.6,5.6,0,0,0-1.05-3.69c-.69-.83-1.92-1.24-3.69-1.24a8.48,8.48,0,0,0-4.91,1.55V63.13A9.8,9.8,0,0,1,188.74,61.87Zm4.5,9.86h-3.57a6.11,6.11,0,0,0-3.81,1,3,3,0,0,0-1.26,2.49,3.21,3.21,0,0,0,1,2.43,4.27,4.27,0,0,0,3,.93,4.73,4.73,0,0,0,3.33-1.18,4,4,0,0,0,1.3-3Z"/><path class="cls-1" d="M203,55v9.93a6.3,6.3,0,0,1,5.52-3,7,7,0,0,1,5.71,2.68,10.3,10.3,0,0,1,2.2,6.73A10.78,10.78,0,0,1,214.4,78a6.83,6.83,0,0,1-5.76,2.68,6.27,6.27,0,0,1-5.61-3v2.66h-2.2V55Zm1.69,21.94a5.48,5.48,0,0,0,4,1.71,4.7,4.7,0,0,0,3.87-2,8.56,8.56,0,0,0,1.53-5.36,8.32,8.32,0,0,0-1.58-5.35,5,5,0,0,0-4-2A5.33,5.33,0,0,0,205,65.43a5.48,5.48,0,0,0-1.42,2.25,9.87,9.87,0,0,0-.56,3.51Q203,75.19,204.72,76.9Z"/><path class="cls-1" d="M221,57.41a1.5,1.5,0,0,1-.43-1.08,1.55,1.55,0,0,1,.43-1.1,1.44,1.44,0,0,1,1.08-.45,1.54,1.54,0,0,1,1.55,1.55,1.44,1.44,0,0,1-.45,1.08,1.55,1.55,0,0,1-1.1.43A1.5,1.5,0,0,1,221,57.41Zm0,23V62.16h2.2V80.41Z"/><path class="cls-1" d="M256,67.05V78.61a11.88,11.88,0,0,1-7.2,2.09,11.53,11.53,0,0,1-12.28-12.3,12.87,12.87,0,0,1,3.3-9.16,10.9,10.9,0,0,1,8.33-3.53,13.35,13.35,0,0,1,7.06,1.7v2.48a11.7,11.7,0,0,0-6.9-1.94,9,9,0,0,0-6.8,2.82,10.51,10.51,0,0,0-2.68,7.54,10.15,10.15,0,0,0,2.66,7.44,9.82,9.82,0,0,0,7.34,2.72,10.67,10.67,0,0,0,4.94-1.12V69h-5.73v-2Z"/><path class="cls-1" d="M277.11,71.36a10,10,0,0,1-2.28,6.73,7.81,7.81,0,0,1-6.21,2.64,7.68,7.68,0,0,1-6.19-2.66,9.91,9.91,0,0,1-2.27-6.68,10,10,0,0,1,2.34-6.75,7.79,7.79,0,0,1,6.23-2.73,7.57,7.57,0,0,1,6.13,2.68A10.17,10.17,0,0,1,277.11,71.36Zm-2.3,0a8.57,8.57,0,0,0-1.55-5.22A5.3,5.3,0,0,0,268.71,64a5.44,5.44,0,0,0-4.63,2.16,8.4,8.4,0,0,0-1.62,5.19,8.1,8.1,0,0,0,1.68,5.16,5.85,5.85,0,0,0,9,0A8.24,8.24,0,0,0,274.81,71.32ZM265.58,59.1a1.45,1.45,0,0,1-1.1-.45,1.54,1.54,0,0,1-.43-1.12,1.49,1.49,0,0,1,.43-1.1,1.52,1.52,0,0,1,1.1-.43,1.57,1.57,0,0,1,1.11.43,1.47,1.47,0,0,1,.45,1.1,1.54,1.54,0,0,1-1.56,1.57Zm6.66,0a1.54,1.54,0,0,1-1.57-1.57,1.47,1.47,0,0,1,.45-1.1,1.58,1.58,0,0,1,1.12-.43,1.49,1.49,0,0,1,1.53,1.53,1.55,1.55,0,0,1-.44,1.12A1.43,1.43,0,0,1,272.24,59.1Z"/><path class="cls-1" d="M281.61,80.41V55h2.2V80.41Z"/><path class="cls-1" d="M289.57,80.41V55h2.2V80.41Z"/><path class="cls-1" d="M305.41,80.59a9,9,0,0,1-6.61-2.54,9.19,9.19,0,0,1-2.53-6.8,9.85,9.85,0,0,1,2.23-6.79,7.26,7.26,0,0,1,5.69-2.52,6.92,6.92,0,0,1,5.43,2.2,8.92,8.92,0,0,1,2,6.19,10.88,10.88,0,0,1-.14,1.94H298.57a6.57,6.57,0,0,0,2.09,4.63,7.15,7.15,0,0,0,4.89,1.6,8.76,8.76,0,0,0,4.9-1.22v2.23A11.13,11.13,0,0,1,305.41,80.59Zm3.92-10.33v-.83a5.55,5.55,0,0,0-1.38-4A4.87,4.87,0,0,0,304.24,64a5.13,5.13,0,0,0-3.87,1.62,7.43,7.43,0,0,0-1.8,4.65Z"/><path class="cls-1" d="M318.26,62.16v3.09a5.24,5.24,0,0,1,5.11-3.31c.17,0,.47,0,.9.07v2.24a4.8,4.8,0,0,0-1.44-.22A3.84,3.84,0,0,0,319.58,66a7.35,7.35,0,0,0-1.32,4.26V80.41h-2.19V62.16Z"/></svg>