<?xml version="1.0" encoding="UTF-8"?>
<svg width="76px" height="48px" viewBox="0 0 76 48" version="1.1" xmlns="http://www.w3.org/2000/svg" xmlns:xlink="http://www.w3.org/1999/xlink">
    <!-- Generator: Sketch 52.5 (67469) - http://www.bohemiancoding.com/sketch -->
    <title>Path</title>
    <desc>Created with Sketch.</desc>
    <g id="Website" stroke="none" stroke-width="1" fill="none" fill-rule="evenodd">
        <g id="Website_DT_default" transform="translate(-922.000000, -62.000000)" fill="#FFFFFF">
            <g id="Group-2" transform="translate(460.000000, 30.000000)">
                <g id="Logo_logo_bright" transform="translate(462.000000, 32.000000)">
                    <path d="M0,4.57777064 L19.0299213,23.4162892 L19.4069291,23.7896225 L19.4069291,47.665178 L22.3990551,47.665178 L22.3990551,23.7836966 L22.9974803,23.191104 L28.9817323,17.265178 L36.1628346,10.1540669 L36.2107087,10.1007336 C40.1742885,5.58346091 45.9181385,2.98588633 51.9612598,2.97777064 C61.4962797,2.97224585 69.8193381,9.37470062 72.1721131,18.5248288 C74.5248881,27.6749571 70.307406,37.239414 61.9308164,41.7501657 C53.5542268,46.2609173 43.1546168,44.5676915 36.6774803,37.6385114 L49.8428346,24.6014743 L47.7004724,22.5333262 L32.6500787,37.4370299 C33.2390702,38.2351731 33.8765744,38.9970757 34.5590551,39.7185114 C41.2823201,46.8519519 51.7444912,49.1546379 60.8862202,45.5130252 C70.0279492,41.8714124 75.9654463,33.0359097 75.8274274,23.2792328 C75.6894086,13.522556 69.5043146,4.85521402 60.2631636,1.46860284 C51.0220127,-1.91800833 40.629082,0.673973095 34.1102362,7.99110397 L20.8970079,21.0814743 L2.1184252,2.48591879 L0,4.57777064 Z" id="Path"></path>
                </g>
            </g>
        </g>
    </g>
</svg>