<?xml version="1.0" encoding="utf-8"?>
<!-- Generator: Adobe Illustrator 24.0.3, SVG Export Plug-In . SVG Version: 6.00 Build 0)  -->
<svg version="1.1" id="Layer_1" xmlns="http://www.w3.org/2000/svg" xmlns:xlink="http://www.w3.org/1999/xlink" x="0px" y="0px"
	 viewBox="0 0 273 269" style="enable-background:new 0 0 273 269;" xml:space="preserve">
<style type="text/css">
	.st0{opacity:6.000000e-02;fill-rule:evenodd;clip-rule:evenodd;fill:#FFFFFF;}
</style>
<title>virus-big</title>
<desc>Created with Sketch.</desc>
<path id="Fill-1" class="st0" d="M272.9,123.1c1,12.9-8.1,24.4-20.3,25.6c-9.3,0.9-17.8-4.4-21.7-12.8l-11.1,1l-8.3,4
	c-1.9,0.9-3.2,2.7-3.5,4.8c-0.8,5.7-2.2,11.1-4.2,16.3c-0.7,1.8-0.6,3.7,0.4,5.4l3,5.3l8.3,5.6c4.4-1.7,9.4-1.3,13.6,1.5
	c7.1,4.8,8.8,14.6,3.5,21.4c-4.5,5.9-13,7.6-19.4,3.8c-4.1-2.4-6.6-6.5-7.2-10.8l-9.2-6.2l-5.8-0.7c-2-0.2-4,0.4-5.4,1.8
	c-4.9,4.6-10.4,8.6-16.3,11.8c-2,1.1-3.3,3.1-3.4,5.4l-0.7,11.7l3.6,14.4c6.2,1.7,11.3,6.6,13,13.3c2.5,10.1-3.7,20.3-13.9,22.6
	c-9.2,2.1-18.6-3.3-21.6-12.3c-2.3-7-0.2-14.3,4.6-19l-3.6-14.5l-5.6-9.1c-1.5-2.4-4.2-3.9-7-3.9h0c-4.9,0-9.8-0.5-14.4-1.4
	c-2.8-0.6-5.6,0.3-7.6,2.4l-7.4,7.9L96.8,236c1.9,4,2.1,8.8,0.1,13.1c-3.7,7.7-13.2,10.8-20.7,6.5c-6.5-3.7-9.3-11.7-6.5-18.6
	c1.9-4.7,5.9-7.8,10.4-8.9l8.4-17.4l1.6-11.7c0.3-2.2-0.5-4.3-2.2-5.7c-6.7-5.4-12.4-12-16.8-19.3c-1.1-1.8-3.1-2.9-5.2-3l-11.7-0.1
	l-12.8,4c-0.9,7.9-6.3,15-14.4,17.6c-10.9,3.4-22.5-2.6-26-13.4c-3.5-10.8,2.4-22.7,13.2-26.3c7.6-2.5,15.5-0.4,20.9,4.7l13.5-4.3
	l9.9-7.1c1.5-1,2.3-2.8,2.1-4.6c-0.2-2-0.2-4-0.2-6c0-11,2.4-21.5,6.7-31c0.6-1.4,0.6-3-0.1-4.3l-2.9-6l-8-6
	c-4.5,1.4-9.5,0.7-13.5-2.3c-6.8-5.1-8-15-2.3-21.6c4.9-5.7,13.4-6.8,19.5-2.7c3.9,2.7,6.2,6.8,6.5,11.1l8.8,6.7l8.9,1.6
	c6.5-6,14-10.9,22.3-14.3l2.1-12.7l-2.6-13.1c-7.8-2-14.1-8-15.8-16c-2.4-11.3,5.3-22.2,17.3-24.5c11.9-2.3,23.5,5,25.9,16.3
	c1.8,8.4-2.1,16.7-9.1,21.3l2.5,12.4l6.1,9.8c0.4,0.6,1.1,1,1.8,1h0c14,0,27.1,3.9,38.2,10.7c0.6,0.4,1.4,0.4,2,0.1l9.6-4.4
	l11.2-12.1c-0.7-4.3,0.6-8.9,3.8-12.4c5.8-6.3,15.7-6.4,21.7-0.2c5.2,5.5,5.4,14.3,0.5,20c-3.2,3.7-7.8,5.4-12.4,5.1L198,80
	l-3.6,9.8c-0.3,0.7-0.1,1.4,0.3,2c4.4,6.1,7.9,12.8,10.3,20c0.7,2,2.2,3.5,4.3,4.1l9.1,2.5l11.8-1c2.9-8.4,10.1-14.7,19-15.6
	C261.2,100.6,271.9,110.1,272.9,123.1"/>
<path id="Fill-4" class="st0" d="M134,81c30.4,0,55,24.6,55,55c0,30.4-24.6,55-55,55s-55-24.6-55-55C79,105.6,103.6,81,134,81"/>
<path id="Fill-8" class="st0" d="M42,4c8.8,0,16,7.2,16,16s-7.2,16-16,16s-16-7.2-16-16S33.2,4,42,4"/>
<path id="Fill-10" class="st0" d="M37.5,217c5.8,0,10.5,4.7,10.5,10.5S43.3,238,37.5,238c-5.8,0-10.5-4.7-10.5-10.5
	S31.7,217,37.5,217"/>
<path id="Fill-12" class="st0" d="M227,229c8.3,0,15,6.7,15,15c0,8.3-6.7,15-15,15s-15-6.7-15-15C212,235.7,218.7,229,227,229"/>
<path id="Fill-14" class="st0" d="M117,107c7.7,0,14,6.3,14,14s-6.3,14-14,14s-14-6.3-14-14S109.3,107,117,107"/>
<path id="Fill-16" class="st0" d="M129,154c5.5,0,10,4.5,10,10s-4.5,10-10,10c-5.5,0-10-4.5-10-10S123.5,154,129,154"/>
<path id="Fill-18" class="st0" d="M159,128c4.4,0,8,3.6,8,8c0,4.4-3.6,8-8,8s-8-3.6-8-8C151,131.6,154.6,128,159,128"/>
</svg>
